<?xml version="1.0" encoding="UTF-8"?>
<svg width="104px" height="27px" viewBox="0 0 104 27" version="1.1" xmlns="http://www.w3.org/2000/svg" xmlns:xlink="http://www.w3.org/1999/xlink">
    <!-- Generator: Sketch 48.1 (47250) - http://www.bohemiancoding.com/sketch -->
    <title>Group 22</title>
    <desc>Created with Sketch.</desc>
    <defs></defs>
    <g id="Home" stroke="none" stroke-width="1" fill="none" fill-rule="evenodd" transform="translate(-1248.000000, -1401.000000)">
        <g id="Group-7-Copy" transform="translate(0.000000, 1170.000000)" fill="#000000" fill-rule="nonzero">
            <g id="Group-2-Copy" transform="translate(1225.000000, 220.000000)">
                <g id="Group-24">
                    <g id="Group-22" transform="translate(22.612903, 10.500000)">
                        <g id="_Group_">
                            <g id="_Group_2">
                                <g id="_Group_3">
                                    <path d="M16.5051443,13.299021 C16.528597,11.4787962 17.4828626,9.7974628 19.0336128,8.84407827 C18.0508702,7.44054912 16.4638519,6.58258439 14.7513081,6.52900332 C12.9495662,6.33987737 11.2028699,7.60713472 10.2847166,7.60713472 C9.34881653,7.60713472 7.93521098,6.54778178 6.41297925,6.57909642 C4.41013145,6.64380478 2.58819838,7.75493495 1.61377158,9.50595719 C-0.461258895,13.098628 1.08653012,18.3786675 3.0742717,21.2827361 C4.06878736,22.7047713 5.23108136,24.2932126 6.75194082,24.2368876 C8.2401856,24.175156 8.79601779,23.2878839 10.592446,23.2878839 C12.372211,23.2878839 12.8936848,24.2368876 14.4454049,24.2010744 C16.0423687,24.175156 17.0485126,22.7727246 18.0081539,21.3372246 C18.7227125,20.3239753 19.2725638,19.2041138 19.6373404,18.0191218 C17.7406363,17.2169094 16.5073517,15.3583962 16.5051443,13.299021 Z" id="_Path_"></path>
                                    <path d="M13.5742596,4.6190995 C14.4449932,3.57382547 14.8739725,2.23029856 14.7700969,0.873838235 C13.4398218,1.01355715 12.2110201,1.64934156 11.3285308,2.65451115 C10.4571121,3.64624727 10.0156538,4.94370426 10.1013892,6.26111101 C11.4494954,6.27498783 12.729493,5.66979082 13.5742596,4.6190995 Z" id="_Path_2"></path>
                                </g>
                            </g>
                            <g id="Group" transform="translate(25.794592, 10.317837)">
                                <path d="M8.56564113,10.4619254 L3.68179625,10.4619254 L2.50894711,13.9250557 L0.440344639,13.9250557 L5.0662436,1.11236599 L7.215449,1.11236599 L11.841348,13.9250557 L9.73747913,13.9250557 L8.56564113,10.4619254 Z M4.18761788,8.86386788 L8.05887026,8.86386788 L6.15046252,3.24346359 L6.09701613,3.24346359 L4.18761788,8.86386788 Z" id="Shape"></path>
                                <path d="M21.8317173,9.25482104 C21.8317173,12.1577238 20.2779955,14.0227863 17.9333083,14.0227863 C16.72136,14.0861838 15.579771,13.4513955 14.9941384,12.3884409 L14.9497717,12.3884409 L14.9497717,17.015351 L13.0323049,17.015351 L13.0323049,4.58357519 L14.8883083,4.58357519 L14.8883083,6.13729696 L14.9235747,6.13729696 C15.5352247,5.08100627 16.6780447,4.44649121 17.898011,4.48583432 C20.2689261,4.48584464 21.8317173,6.35997652 21.8317173,9.25482104 Z M19.8608454,9.25482104 C19.8608454,7.36356155 18.8834676,6.12016935 17.3922204,6.12016935 C15.9271701,6.12016935 14.9417341,7.38974822 14.9417341,9.25482104 C14.9417341,11.1370215 15.9271701,12.397531 17.3922204,12.397531 C18.8834779,12.397531 19.8608041,11.1632185 19.8608041,9.25482104 L19.8608454,9.25482104 Z" id="Shape"></path>
                                <path d="M32.1137821,9.25482104 C32.1137821,12.1577238 30.5595548,14.0227863 28.2148676,14.0227863 C27.0029193,14.0861838 25.8613303,13.4513955 25.2756977,12.3884409 L25.231331,12.3884409 L25.231331,17.015351 L23.3138642,17.015351 L23.3138642,4.58357519 L25.1698676,4.58357519 L25.1698676,6.13729696 L25.205134,6.13729696 C25.816784,5.08100627 26.959604,4.44649121 28.1795703,4.48583432 C30.5504957,4.48584464 32.1137821,6.35997652 32.1137821,9.25482104 Z M30.142415,9.25482104 C30.142415,7.36356155 29.1650372,6.12016935 27.67379,6.12016935 C26.2087397,6.12016935 25.2233037,7.38974822 25.2233037,9.25482104 C25.2233037,11.1370215 26.2087397,12.397531 27.67379,12.397531 C29.1650372,12.397531 30.142415,11.1632185 30.142415,9.25482104 Z" id="Shape"></path>
                                <path d="M38.9080364,10.3551152 C39.050113,11.6257052 40.2844358,12.4599539 41.9711442,12.4599539 C43.5873405,12.4599539 44.7501091,11.6256639 44.7501091,10.4800126 C44.7501091,9.48550723 44.0488161,8.89003392 42.3882944,8.48194284 L40.7277727,8.0819203 C38.3750273,7.51363449 37.2827811,6.41333005 37.2827811,4.62785935 C37.2827811,2.41718027 39.2093172,0.898724858 41.9439464,0.898724858 C44.6523786,0.898724858 46.508382,2.41718027 46.5708565,4.62785935 L44.6352303,4.62785935 C44.519361,3.3492111 43.4623812,2.57739564 41.9177288,2.57739564 C40.3730764,2.57739564 39.3161069,3.3582908 39.3161069,4.49486243 C39.3161069,5.40069628 39.9912029,5.93371573 41.6426552,6.34175522 L43.0543004,6.68837263 C45.6831305,7.31006357 46.7743655,8.36605289 46.7743655,10.2401641 C46.7743655,12.6372453 44.8659681,14.1385731 41.8290263,14.1385731 C38.9875869,14.1385731 37.0691193,12.6725116 36.9451815,10.3550223 L38.9080364,10.3551152 Z" id="Shape"></path>
                                <path d="M50.9146142,2.37289611 L50.9146142,4.58357519 L52.6910155,4.58357519 L52.6910155,6.1020306 L50.9146142,6.1020306 L50.9146142,11.2518796 C50.9146142,12.0519144 51.270301,12.4247288 52.0511858,12.4247288 C52.2620736,12.4210514 52.4726201,12.4062419 52.6819462,12.3803621 L52.6819462,13.8897481 C52.3308594,13.9553485 51.9740093,13.9850586 51.6169081,13.9784196 C49.7256486,13.9784196 48.988078,13.2680572 48.988078,11.4563895 L48.988078,6.1020306 L47.629838,6.1020306 L47.629838,4.58357519 L48.9880574,4.58357519 L48.9880574,2.37289611 L50.9146142,2.37289611 Z" id="Shape"></path>
                                <path d="M53.7187856,9.25482104 C53.7187856,6.31565109 55.44984,4.46871703 58.1492131,4.46871703 C60.8576453,4.46871703 62.5806415,6.31560982 62.5806415,9.25482104 C62.5806415,12.2020595 60.8667147,14.040925 58.1492131,14.040925 C55.4327021,14.040925 53.7187856,12.2020492 53.7187856,9.25482104 Z M60.6268972,9.25482104 C60.6268972,7.23861255 59.7029246,6.04863579 58.1492028,6.04863579 C56.595481,6.04863579 55.6715084,7.24768193 55.6715084,9.25482104 C55.6715084,11.2790878 56.595481,12.4600055 58.1492028,12.4600055 C59.7029246,12.4600055 60.6268869,11.2790878 60.6268869,9.25482104 L60.6268972,9.25482104 Z" id="Shape"></path>
                                <path d="M64.1615508,4.58357519 L65.9903461,4.58357519 L65.9903461,6.17355384 L66.0347128,6.17355384 C66.289745,5.15001247 67.2275915,4.44557573 68.281659,4.485824 C68.50263,4.48505247 68.7229913,4.50905022 68.9386163,4.55736788 L68.9386163,6.35089682 C68.659654,6.26565428 68.3686483,6.22651663 68.077077,6.23502751 C67.5133601,6.21215848 66.9678073,6.43681833 66.5836645,6.85001802 C66.1995216,7.26321772 66.0151672,7.82367593 66.0790072,8.38423292 L66.0790072,13.9250351 L64.1615404,13.9250351 L64.1615508,4.58357519 Z" id="Shape"></path>
                                <path d="M77.7792794,11.1813469 C77.5213335,12.877135 75.8698708,14.0409147 73.7569326,14.0409147 C71.0394311,14.0409147 69.3527124,12.2201777 69.3527124,9.29914647 C69.3527124,6.3690459 71.0485005,4.46870671 73.6763297,4.46870671 C76.260824,4.46870671 77.8860897,6.24409689 77.8860897,9.07646691 L77.8860897,9.73342422 L71.288318,9.73342422 L71.288318,9.84929352 C71.2267178,10.5447484 71.4668594,11.2331522 71.9476586,11.7393973 C72.4284578,12.2456425 73.1035737,12.5209357 73.8012787,12.4952512 C74.7317848,12.5824365 75.60907,12.048115 75.9585527,11.1813366 L77.7792794,11.1813469 Z M71.2973692,8.39332294 L75.9676117,8.39331262 C76.0024091,7.76839993 75.7749328,7.15730086 75.3399881,6.70724555 C74.9050433,6.25719024 74.3020661,6.00898477 73.6763297,6.02242849 C73.0456434,6.01866478 72.4395829,6.26698663 71.9928565,6.71219986 C71.5461301,7.15741309 71.2957533,7.76262754 71.2973692,8.39332294 Z" id="Shape"></path>
                            </g>
                        </g>
                        <g id="_Group_4" transform="translate(26.826376, 1.031784)">
                            <g id="Group">
                                <path d="M2.91601672,0.754233871 C3.7300389,0.695818593 4.52735563,1.00552213 5.08851082,1.59810067 C5.649666,2.1906792 5.91551081,3.00367169 5.81287322,3.8133074 C5.81287322,5.78014504 4.74985745,6.91072201 2.91601672,6.91072201 L0.692244307,6.91072201 L0.692244307,0.754233871 L2.91601672,0.754233871 Z M1.64844983,6.04006167 L2.80920648,6.04006167 C3.39094876,6.07483485 3.9573924,5.84563133 4.35125724,5.41609234 C4.74512208,4.98655334 4.92447611,4.40240885 4.83951945,3.82585389 C4.91829512,3.25169159 4.73635819,2.67236742 4.34346992,2.24633131 C3.95058165,1.82029521 3.38785725,1.59213126 2.80920648,1.62424419 L1.64844983,1.62424419 L1.64844983,6.04006167 Z" id="Shape"></path>
                                <path d="M6.8930166,4.58559749 C6.81334962,3.75282945 7.21266697,2.94688969 7.92349604,2.50578713 C8.6343251,2.06468458 9.53376562,2.06468458 10.2445947,2.50578713 C10.9554238,2.94688969 11.3547411,3.75282945 11.2750741,4.58559749 C11.3562569,5.4192604 10.957304,6.22676332 10.2458447,6.66881548 C9.53438533,7.11086764 8.63370539,7.11086764 7.92224606,6.66881548 C7.21078673,6.22676332 6.81183386,5.4192604 6.8930166,4.58559749 Z M10.3319516,4.58559749 C10.3319516,3.57850439 9.8795351,2.98956226 9.08555693,2.98956226 C8.2885453,2.98956226 7.84019402,3.57850439 7.84019402,4.5856078 C7.84019402,5.60076945 8.28857626,6.18517173 9.08555693,6.18517173 C9.87955574,6.18516141 10.3319619,5.59672486 10.3319619,4.58559749 L10.3319516,4.58559749 Z" id="Shape"></path>
                                <polygon id="Shape" points="17.1000192 6.91062915 16.1488488 6.91062915 15.188609 3.48881143 15.1160643 3.48881143 14.1598484 6.91062915 13.2177371 6.91062915 11.9370769 2.26457946 12.8670957 2.26457946 13.6993737 5.80978819 13.7678944 5.80978819 14.7230991 2.26457946 15.602736 2.26457946 16.5579407 5.80978819 16.6304854 5.80978819 17.4587291 2.26457946 18.3756443 2.26457946"></polygon>
                                <path d="M19.4527749,2.26457946 L20.3354246,2.26457946 L20.3354246,3.00264528 L20.4039453,3.00264528 C20.6422201,2.45923364 21.1989995,2.12682341 21.7904046,2.17489682 C22.2483276,2.14046803 22.6970597,2.31613759 23.0099015,2.65230527 C23.3227434,2.98847294 23.4657459,3.44865829 23.3985324,3.90292813 L23.3985324,6.91057756 L22.4816172,6.91057756 L22.4816172,4.13318098 C22.4816172,3.38655135 22.1571728,3.01524336 21.4790536,3.01524336 C21.1684515,3.00077684 20.8670203,3.12267533 20.6537862,3.34898079 C20.440552,3.57528625 20.3367814,3.88342846 20.3696798,4.19262204 L20.3696798,6.91062915 L19.4527646,6.91062915 L19.4527749,2.26457946 Z" id="Shape"></path>
                                <polygon id="Shape" points="24.8595587 0.450889469 25.7764739 0.450889469 25.7764739 6.91061883 24.8595587 6.91061883"></polygon>
                                <path d="M27.0510879,4.58559749 C26.9714821,3.75277497 27.3708624,2.94681481 28.0817442,2.50570545 C28.792626,2.06459609 29.6921128,2.06459609 30.4029946,2.50570545 C31.1138764,2.94681481 31.5132568,3.75277497 31.433651,4.58559749 C31.5147306,5.41929024 31.1157046,6.22677035 30.40421,6.66880303 C29.6927154,7.11083572 28.7920235,7.11083572 28.0805289,6.66880303 C27.3690342,6.22677035 26.9700082,5.41929024 27.0510879,4.58559749 Z M30.4900229,4.58559749 C30.4900229,3.57850439 30.0376064,2.98956226 29.2436282,2.98956226 C28.4466166,2.98956226 27.9982653,3.57850439 27.9982653,4.5856078 C27.9982653,5.60076945 28.4466475,6.18517173 29.2436282,6.18517173 C30.0376167,6.18516141 30.4900332,5.59672486 30.4900332,4.58559749 L30.4900229,4.58559749 Z" id="Shape"></path>
                                <path d="M32.3989362,5.59672486 C32.3989362,4.76041259 33.0216383,4.27828072 34.1269675,4.20975996 L35.385465,4.13721525 L35.385465,3.73619189 C35.385465,3.24548589 35.0610206,2.96840038 34.4342946,2.96840038 C33.922437,2.96840038 33.5677614,3.15631914 33.4659862,3.48479779 L32.5782912,3.48479779 C32.6719977,2.68677502 33.4226616,2.17491746 34.476608,2.17491746 C35.641399,2.17491746 36.2983563,2.75477989 36.2983563,3.73619189 L36.2983563,6.91063947 L35.4156963,6.91063947 L35.4156963,6.25771644 L35.3431516,6.25771644 C35.0433654,6.73453085 34.5102479,7.0132021 33.9476229,6.9871875 C33.5532092,7.02821309 33.1598469,6.90047708 32.8647822,6.63555814 C32.5697175,6.37063921 32.4004901,5.99326338 32.3989362,5.59672486 Z M35.385465,5.19972545 L35.385465,4.81130017 L34.2509054,4.88384488 C33.6110757,4.9266639 33.3208865,5.14430835 33.3208865,5.55389552 C33.3208865,5.97204649 33.6836204,6.21538235 34.1824259,6.21538235 C34.477708,6.24527298 34.7724786,6.15404803 34.9992585,5.9625908 C35.2260383,5.77113357 35.3654088,5.49583814 35.385465,5.19972545 Z" id="Shape"></path>
                                <path d="M37.5034383,4.58559749 C37.5034383,3.11752407 38.2581365,2.18750522 39.4319865,2.18750522 C40.0247222,2.16019404 40.5798742,2.47780052 40.8567353,3.00261433 L40.925256,3.00261433 L40.925256,0.450889469 L41.8421713,0.450889469 L41.8421713,6.91061883 L40.9635455,6.91061883 L40.9635455,6.17657697 L40.8910008,6.17657697 C40.5932117,6.6970365 40.0312202,7.00927435 39.4319968,6.9871875 C38.2500783,6.98723909 37.5034383,6.0571996 37.5034383,4.58559749 Z M38.4506157,4.58559749 C38.4506157,5.57103344 38.9151248,6.16400984 39.6919856,6.16400984 C40.4647916,6.16400984 40.9424146,5.56247996 40.9424146,4.58963176 C40.9424146,3.62132341 40.4597772,3.0112194 39.6919856,3.0112194 C38.9201289,3.0112194 38.4505848,3.60821976 38.4505848,4.58559749 L38.4506157,4.58559749 Z" id="Shape"></path>
                                <path d="M45.6357922,4.58559749 C45.5561252,3.75282945 45.9554426,2.94688969 46.6662717,2.50578713 C47.3771007,2.06468458 48.2765412,2.06468458 48.9873703,2.50578713 C49.6981994,2.94688969 50.0975167,3.75282945 50.0178497,4.58559749 C50.0990325,5.4192604 49.7000796,6.22676332 48.9886203,6.66881548 C48.277161,7.11086764 47.376481,7.11086764 46.6650217,6.66881548 C45.9535623,6.22676332 45.5546095,5.4192604 45.6357922,4.58559749 Z M49.0747272,4.58559749 C49.0747272,3.57850439 48.6223107,2.98956226 47.8283325,2.98956226 C47.0313209,2.98956226 46.5829696,3.57850439 46.5829696,4.5856078 C46.5829696,5.60076945 47.0313519,6.18517173 47.8283325,6.18517173 C48.622321,6.18516141 49.0747272,5.59672486 49.0747272,4.58559749 Z" id="Shape"></path>
                                <path d="M51.248128,2.26457946 L52.130788,2.26457946 L52.130788,3.00264528 L52.1993087,3.00264528 C52.4375835,2.45923364 52.9943629,2.12682341 53.585768,2.17489682 C54.043691,2.14046803 54.492423,2.31613759 54.8052649,2.65230527 C55.1181068,2.98847294 55.2611093,3.44865829 55.1938958,3.90292813 L55.1938958,6.91057756 L54.2769806,6.91057756 L54.2769806,4.13318098 C54.2769806,3.38655135 53.9525362,3.01524336 53.274417,3.01524336 C52.9638148,3.00077684 52.6623837,3.12267533 52.4491496,3.34898079 C52.2359154,3.57528625 52.1321448,3.88342846 52.1650432,4.19262204 L52.1650432,6.91062915 L51.248128,6.91062915 L51.248128,2.26457946 Z" id="Shape"></path>
                                <path d="M60.3749872,1.10785709 L60.3749872,2.28574134 L61.381585,2.28574134 L61.381585,3.0580727 L60.3749872,3.0580727 L60.3749872,5.44709559 C60.3749872,5.93376731 60.575504,6.14687192 61.0319445,6.14687192 C61.1487997,6.14649793 61.2655377,6.13943241 61.381585,6.12571003 L61.381585,6.88946727 C61.2169222,6.91892543 61.0500891,6.93459753 60.8828208,6.93632056 C59.8631296,6.93632056 59.4570608,6.57761065 59.4570608,5.68185733 L59.4570608,3.05803143 L58.7195006,3.05803143 L58.7195006,2.28570007 L59.4570608,2.28570007 L59.4570608,1.10785709 L60.3749872,1.10785709 Z" id="Shape"></path>
                                <path d="M62.634026,0.450889469 L63.5428829,0.450889469 L63.5428829,3.01120908 L63.6154277,3.01120908 C63.865148,2.46304157 64.4316719,2.13020773 65.0320667,2.1789311 C65.4873893,2.15415517 65.9300469,2.33369216 66.2394695,2.66864024 C66.5488921,3.00358832 66.6928514,3.45906061 66.6321361,3.91099668 L66.6321361,6.91062915 L65.7143027,6.91062915 L65.7143027,4.13719462 C65.7143027,3.39509452 65.3686551,3.019257 64.7208085,3.019257 C64.4018108,2.99309475 64.0875297,3.10906444 63.8619851,3.33616265 C63.6364405,3.56326086 63.522631,3.87833073 63.5509824,4.19714125 L63.5509824,6.91060852 L62.6340672,6.91060852 L62.634026,0.450889469 Z" id="Shape"></path>
                                <path d="M71.9785193,5.65616592 C71.7214061,6.5325418 70.8733231,7.09877804 69.965334,7.00030147 C69.3458138,7.01665544 68.7504205,6.75986564 68.3371259,6.29806451 C67.9238314,5.83626337 67.7344179,5.21613694 67.8191414,4.60221952 C67.7366682,3.98659596 67.925372,3.36547586 68.3363651,2.89977331 C68.7473582,2.43407075 69.3401989,2.16961074 69.9612997,2.17490714 C71.2540524,2.17490714 72.0339364,3.05811397 72.0339364,4.5170561 L72.0339364,4.8370019 L68.7531842,4.8370019 L68.7531842,4.88838472 C68.7241519,5.23314507 68.8418977,5.57415743 69.0774643,5.82755622 C69.3130309,6.08095502 69.6445605,6.22322796 69.9905198,6.21938567 C70.4391103,6.2732393 70.8757825,6.05072314 71.0958593,5.65613496 L71.9785193,5.65616592 Z M68.7531635,4.15887239 L71.0998627,4.15887239 C71.1232356,3.84355975 71.0123658,3.53303891 70.7945753,3.30383232 C70.5767849,3.07462572 70.2723283,2.94804971 69.9562336,2.95529673 C69.6358565,2.95127165 69.3274316,3.07680085 69.1009225,3.30340907 C68.8744133,3.53001729 68.749019,3.83849709 68.7531842,4.15887239 L68.7531635,4.15887239 Z" id="Shape"></path>
                            </g>
                        </g>
                    </g>
                </g>
            </g>
        </g>
    </g>
</svg>