<?xml version="1.0" encoding="UTF-8"?>
<svg width="116px" height="28px" viewBox="0 0 116 28" version="1.1" xmlns="http://www.w3.org/2000/svg" xmlns:xlink="http://www.w3.org/1999/xlink">
    <!-- Generator: Sketch 48.1 (47250) - http://www.bohemiancoding.com/sketch -->
    <title>Group 23</title>
    <desc>Created with Sketch.</desc>
    <defs></defs>
    <g id="Home" stroke="none" stroke-width="1" fill="none" fill-rule="evenodd" transform="translate(-1417.000000, -1401.000000)">
        <g id="Group-7-Copy" transform="translate(0.000000, 1170.000000)">
            <g id="Group-2-Copy" transform="translate(1225.000000, 220.000000)">
                <g id="Group-25" transform="translate(175.000000, 0.000000)">
                    <g id="Group-23" transform="translate(17.133333, 11.000000)">
                        <path d="M37.4789041,16.4991781 L31.2010959,16.4991781 L31.2010959,18.3621918 L35.6536986,18.3621918 C35.4339726,20.9747945 33.260274,22.0887671 31.2087671,22.0887671 C28.5841096,22.0887671 26.2936986,20.0235616 26.2936986,17.1293151 C26.2936986,14.309589 28.4772603,12.1380822 31.2142466,12.1380822 C33.3265753,12.1380822 34.5709589,13.4843836 34.5709589,13.4843836 L35.8756164,12.1336986 C35.8756164,12.1336986 34.2016438,10.270137 31.1479452,10.270137 C27.259726,10.270137 24.2515068,13.5517808 24.2515068,17.0964384 C24.2515068,20.569863 27.0810959,23.9567123 31.2465753,23.9567123 C34.9106849,23.9567123 37.5923288,21.4465753 37.5923288,17.7353425 C37.5923288,16.9512329 37.4789041,16.4986301 37.4789041,16.4991781 Z" id="Shape" fill="#1F1400"></path>
                        <path d="M42.8410959,16.8778082 C44.1079452,16.8778082 45.3084932,17.9019178 45.3084932,19.5523288 C45.3084932,21.1676712 44.1128767,22.2208219 42.8356164,22.2208219 C41.4317808,22.2208219 40.3243836,21.0964384 40.3243836,19.5391781 C40.3238356,18.0158904 41.4175342,16.8778082 42.8410959,16.8778082 Z M42.8153425,15.150137 C40.2394521,15.150137 38.3928767,17.1638356 38.3928767,19.5128767 C38.3928767,21.8964384 40.1835616,23.9479452 42.8449315,23.9479452 C45.2547945,23.9479452 47.2284932,22.1063014 47.2284932,19.5643836 C47.2290411,16.650411 44.9331507,15.150137 42.8153425,15.150137 Z" id="Shape" fill="#1F1400"></path>
                        <path d="M52.5627397,16.8778082 C53.829589,16.8778082 55.030137,17.9019178 55.030137,19.5523288 C55.030137,21.1676712 53.8345205,22.2208219 52.5567123,22.2208219 C51.1528767,22.2208219 50.0454795,21.0964384 50.0454795,19.5391781 C50.0460274,18.0158904 51.139726,16.8778082 52.5627397,16.8778082 Z M52.5375342,15.150137 C49.9616438,15.150137 48.1156164,17.1638356 48.1156164,19.5128767 C48.1156164,21.8964384 49.9063014,23.9479452 52.5682192,23.9479452 C54.9775342,23.9479452 56.9517808,22.1063014 56.9517808,19.5643836 C56.9512329,16.650411 54.6553425,15.150137 52.5375342,15.150137 Z" id="Shape" fill="#1F1400"></path>
                        <path d="M62.2312329,16.8789041 C63.3906849,16.8789041 64.5808219,17.8690411 64.5808219,19.5594521 C64.5808219,21.2778082 63.3928767,22.2246575 62.2054795,22.2246575 C60.9452055,22.2246575 59.7720548,21.2010959 59.7720548,19.5758904 C59.7720548,17.8865753 60.990137,16.8789041 62.2312329,16.8789041 Z M62.059726,15.1545205 C59.6953425,15.1545205 57.8367123,17.2252055 57.8367123,19.549589 C57.8367123,22.1972603 59.9912329,23.9528767 62.0191781,23.9528767 C63.2728767,23.9528767 63.939726,23.4553425 64.4317808,22.8838356 L64.4317808,23.7512329 C64.4317808,25.2690411 63.510137,26.1775342 62.1194521,26.1775342 C60.7758904,26.1775342 60.1019178,25.1786301 59.8679452,24.6115068 L58.1775342,25.3183562 C58.7775342,26.5863014 59.9846575,27.9090411 62.1336986,27.9090411 C64.4849315,27.9090411 66.2761644,26.4284932 66.2761644,23.3227397 L66.2761644,15.4191781 L64.4317808,15.4191781 L64.4317808,16.1643836 C63.8646575,15.5528767 63.0893151,15.1545205 62.059726,15.1545205 Z" id="Shape" fill="#1F1400"></path>
                        <path d="M74.9408219,16.8356164 C75.7446575,16.8356164 76.3227397,17.2630137 76.5687671,17.7753425 L72.629589,19.4219178 C72.459726,18.1473973 73.6673973,16.8356164 74.9408219,16.8356164 Z M74.8641096,15.1441096 C72.6339726,15.1441096 70.7610959,16.9183562 70.7610959,19.5369863 C70.7610959,22.3073973 72.8482192,23.9506849 75.0783562,23.9506849 C76.939726,23.9506849 78.0816438,22.9326027 78.7632877,22.020274 L77.2427397,21.0082192 C76.8482192,21.6208219 76.1884932,22.2191781 75.0876712,22.2191781 C73.8509589,22.2191781 73.2821918,21.5419178 72.929863,20.8860274 L78.8284932,18.4383562 L78.5221918,17.7210959 C77.9523288,16.3172603 76.6235616,15.1446575 74.8641096,15.1441096 Z" id="Shape" fill="#1F1400"></path>
                        <rect id="Rectangle-path" fill="#1F1400" x="67.7550685" y="10.7243836" width="1.93753425" height="12.9660274"></rect>
                        <rect id="Rectangle-path" fill="#1F1400" x="93.7309589" y="10.7243836" width="1.93753425" height="12.9660274"></rect>
                        <rect id="Rectangle-path" fill="#1F1400" x="83.4569863" y="10.7243836" width="1.93753425" height="12.9660274"></rect>
                        <path d="M83.4569863,10.7243836 L88.1435616,10.7243836 C90.4153425,10.7243836 92.2739726,12.5830137 92.2739726,14.8547945 C92.2739726,17.1265753 90.4153425,18.9852055 88.1435616,18.9852055 L83.4569863,18.9852055 L83.4569863,10.7243836 Z M85.3945205,12.6613699 L85.3945205,17.0471233 L88.1435616,17.0471233 C89.3457534,17.0471233 90.3364384,16.0564384 90.3364384,14.8542466 C90.3364384,13.6520548 89.3457534,12.6613699 88.1435616,12.6613699 L85.3945205,12.6613699 Z" id="Shape" fill="#1F1400"></path>
                        <polygon id="Shape" fill="#1F1400" points="109.973151 27.909589 115.583014 15.1446575 113.466301 15.1446575 107.856986 27.909589"></polygon>
                        <polygon id="Shape" fill="#1F1400" points="110.598904 24.9879452 106.273425 15.1446575 108.389589 15.1446575 111.373151 21.9336986 110.598904 21.9336986"></polygon>
                        <path d="M103.597808,23.689863 L105.535342,23.689863 L105.535342,19.0268493 C105.838356,14.2175342 99.7408219,13.0860274 97.4339726,16.5534247 L98.9928767,17.5994521 C100.121096,15.6268493 103.340274,16.0810959 103.551781,18.1945205 C102.58411,17.9380822 101.539178,17.7523288 100.58411,17.8493151 C99.0936986,18 97.8175342,18.9468493 97.6147945,20.4969863 C97.5052055,21.3347945 97.6920548,22.3676712 98.2772603,22.9967123 C99.1884932,23.9775342 100.685479,24.109589 101.914521,23.7742466 C102.606575,23.5857534 103.151781,23.1742466 103.598356,22.6432877 L103.598356,23.689863 L103.597808,23.689863 Z M103.597808,19.9419178 C103.350137,21.020274 102.513973,21.7956164 101.453699,22.0843836 C99.2131507,22.6947945 98.6564384,19.0547945 101.985205,19.5556164 C102.55726,19.6246575 103.05589,19.7660274 103.597808,19.9419178 Z" id="Shape" fill="#1F1400"></path>
                        <path d="M30.6630137,2.83561644 L27.8060274,2.83561644 L27.8060274,3.68328767 L29.8323288,3.68328767 C29.7320548,4.87232877 28.7430137,5.37917808 27.8093151,5.37917808 C26.6147945,5.37917808 25.5726027,4.43945205 25.5726027,3.12219178 C25.5726027,1.83890411 26.5660274,0.850958904 27.8120548,0.850958904 C28.7731507,0.850958904 29.339726,1.46356164 29.339726,1.46356164 L29.9331507,0.848767123 C29.9331507,0.848767123 29.1709589,0.000547945206 27.7813699,0.000547945206 C26.0120548,0.000547945206 24.6432877,1.49424658 24.6432877,3.10739726 C24.6432877,4.68821918 25.9309589,6.22958904 27.8268493,6.22958904 C29.4942466,6.22958904 30.7145205,5.08712329 30.7145205,3.39835616 C30.7145205,3.04109589 30.6630137,2.83506849 30.6630137,2.83561644 Z" id="Shape" fill="#1F1400"></path>
                        <rect id="Rectangle-path" fill="#1F1400" x="42.340274" y="0.207123288" width="1" height="5.90027397"></rect>
                        <path d="M37.4021918,6.10794521 L38.2838356,6.10794521 L38.2838356,1.08931507 L39.7309589,1.08931507 L39.7309589,0.207671233 C38.4723288,0.207671233 37.2136986,0.207671233 35.9545205,0.207671233 L35.9545205,1.08931507 L37.4016438,1.08931507 L37.4016438,6.10794521 L37.4021918,6.10794521 Z" id="Shape" fill="#1F1400"></path>
                        <path d="M31.6438356,6.10794521 L35.0252055,6.10794521 L35.0252055,5.22630137 L32.5260274,5.22630137 L32.5260274,3.59835616 L34.7249315,3.59835616 L34.7249315,2.71671233 L32.5260274,2.71671233 L32.5260274,1.08876712 L35.0257534,1.08876712 L35.0257534,0.207123288 L31.6438356,0.207123288 C31.6438356,2.17424658 31.6438356,4.14082192 31.6438356,6.10794521 Z" id="Shape" fill="#1F1400"></path>
                        <path d="M45.3868493,6.10794521 L46.2684932,6.10794521 L46.2684932,1.08931507 L47.7156164,1.08931507 L47.7156164,0.207671233 C46.4569863,0.207671233 45.1983562,0.207671233 43.9391781,0.207671233 L43.9391781,1.08931507 L45.3863014,1.08931507 L45.3863014,6.10794521 L45.3868493,6.10794521 Z" id="Shape" fill="#1F1400"></path>
                        <path d="M53.1227397,5.37863014 C51.939726,5.36438356 50.9134247,4.4290411 50.9134247,3.12219178 C50.9134247,1.84931507 51.8909589,0.866849315 53.1227397,0.850958904 C54.3545205,0.866849315 55.3320548,1.84931507 55.3320548,3.12219178 C55.3320548,4.4290411 54.3057534,5.36438356 53.1227397,5.37863014 Z M53.1227397,5.68434189e-14 C51.3534247,5.68434189e-14 49.9841096,1.49315068 49.9841096,3.10684932 C49.9841096,4.67506849 51.2515068,6.20383562 53.1227397,6.22794521 C54.9939726,6.20383562 56.2613699,4.67452055 56.2613699,3.10684932 C56.2608219,1.49369863 54.8920548,5.68434189e-14 53.1227397,5.68434189e-14 Z" id="Shape" fill="#1F1400"></path>
                        <polygon id="Shape" fill="#1F1400" points="57.1419178 6.10794521 58.0235616 6.10794521 58.0235616 1.80986301 60.8553425 6.10794521 61.7353425 6.10794521 61.7353425 0.207123288 60.8536986 0.207123288 60.8536986 4.5030137 58.0235616 0.207123288 57.1419178 0.207123288"></polygon>
                        <g id="Group" transform="translate(0.000000, 7.712511)" fill="#000000" fill-rule="nonzero">
                            <path d="M18.249137,9.91989796 C18.4239578,9.8240846 18.5610223,9.67467513 18.5858402,9.56904185 C18.6056742,9.48462201 18.5451528,9.38151838 18.2500085,9.22048712 C18.23351,9.21149044 15.7258079,7.84349119 14.167042,6.99326128 L11.5983485,9.58165884 L14.1688058,12.1534592 C17.2293016,10.4781975 18.1337179,9.98313088 18.249137,9.91989796 Z" id="Shape"></path>
                            <path d="M10.9414732,10.2441119 L2.95640969,18.2901102 C5.37496328,16.9662431 10.0992888,14.3804359 13.3163245,12.6197905 L10.9414732,10.2441119 Z" id="Shape"></path>
                            <path d="M13.3145137,6.5278765 C13.0712863,6.3951741 12.6834535,6.18357642 11.9201116,5.76710471 C9.98043973,4.7088405 9.98043973,4.7088405 7.65282593,3.43892354 C5.45057901,2.23740672 3.74527992,1.30702441 2.68401798,0.728027838 L10.9378284,8.92279299 L13.3145137,6.5278765 Z" id="Shape"></path>
                            <path d="M0.73107437,0.104274926 C0.612321308,0.215870779 0.544474935,0.412130898 0.546112574,0.720709659 C0.551223744,1.71645847 0.629131061,17.1613312 0.63597629,18.5296177 C0.637616561,18.869154 0.708476413,19.0861756 0.817838113,19.1928153 L10.2815966,9.58647562 L0.73107437,0.104274926 Z" id="Shape"></path>
                        </g>
                    </g>
                </g>
            </g>
        </g>
    </g>
</svg>